<svg width="42" height="26" viewBox="0 0 42 26" fill="none" xmlns="http://www.w3.org/2000/svg">
<path d="M23.0833 21.3333H2.24999C1.69746 21.3333 1.16755 21.5528 0.776851 21.9435C0.38615 22.3342 0.166656 22.8641 0.166656 23.4167C0.166656 23.9692 0.38615 24.4991 0.776851 24.8898C1.16755 25.2805 1.69746 25.5 2.24999 25.5H23.0833C23.6359 25.5 24.1658 25.2805 24.5565 24.8898C24.9472 24.4991 25.1667 23.9692 25.1667 23.4167C25.1667 22.8641 24.9472 22.3342 24.5565 21.9435C24.1658 21.5528 23.6359 21.3333 23.0833 21.3333ZM2.24999 4.66667H39.75C40.3025 4.66667 40.8324 4.44717 41.2231 4.05647C41.6138 3.66577 41.8333 3.13587 41.8333 2.58333C41.8333 2.0308 41.6138 1.5009 41.2231 1.11019C40.8324 0.719494 40.3025 0.5 39.75 0.5H2.24999C1.69746 0.5 1.16755 0.719494 0.776851 1.11019C0.38615 1.5009 0.166656 2.0308 0.166656 2.58333C0.166656 3.13587 0.38615 3.66577 0.776851 4.05647C1.16755 4.44717 1.69746 4.66667 2.24999 4.66667V4.66667ZM39.75 10.9167H2.24999C1.69746 10.9167 1.16755 11.1362 0.776851 11.5269C0.38615 11.9176 0.166656 12.4475 0.166656 13C0.166656 13.5525 0.38615 14.0824 0.776851 14.4731C1.16755 14.8638 1.69746 15.0833 2.24999 15.0833H39.75C40.3025 15.0833 40.8324 14.8638 41.2231 14.4731C41.6138 14.0824 41.8333 13.5525 41.8333 13C41.8333 12.4475 41.6138 11.9176 41.2231 11.5269C40.8324 11.1362 40.3025 10.9167 39.75 10.9167Z" fill="#253334"/>
</svg>
