<svg width="63" height="47" viewBox="0 0 63 47" fill="none" xmlns="http://www.w3.org/2000/svg">
<path d="M61.1717 37.958C60.9105 41.3233 58.3911 46.7734 51.3894 45.3531C50.8481 44.7802 51.8446 41.3858 52.3859 38.3528C52.9272 35.3198 52.1142 30.1021 52.8306 29.9813C60.0539 29.7201 61.433 34.5927 61.1717 37.958Z" fill="#253334"/>
<path d="M1.63076 37.9587C1.89199 41.3241 4.41139 46.7741 11.4131 45.3539C11.9544 44.7809 10.5899 42.5269 10.4166 38.3535C10.2433 34.1801 11.2823 29.4066 10.2443 29.4045C3.02108 29.1434 1.36954 34.5934 1.63076 37.9587Z" fill="#253334"/>
<path d="M6.76796 32.0825C4.7308 24.5278 7.50653 0.25162 32.2548 1.01773C59.4151 1.85729 57.7427 27.045 55.5132 32.4993" stroke="#253334" stroke-width="1.4"/>
<path d="M54.2209 44.6736C55.6112 40.4758 56.5381 37.9571 55.1478 30.8209" stroke="#93DFD5" stroke-width="2" stroke-linecap="round" stroke-linejoin="round"/>
<path d="M9.2674 44.6736C7.41364 40.8956 6.48676 35.0187 7.87708 30.4011" stroke="#93DFD5" stroke-width="2" stroke-linecap="round" stroke-linejoin="round"/>
</svg>
