<svg width="200" height="180" viewBox="0 0 200 180" fill="none" xmlns="http://www.w3.org/2000/svg">
<ellipse cx="99.0906" cy="89.3718" rx="98.6665" ry="89.3718" fill="#BDFDE2"/>
<mask id="mask0_7_67" style="mask-type:alpha" maskUnits="userSpaceOnUse" x="1" y="0" width="199" height="180">
<ellipse cx="100.478" cy="89.8359" rx="98.6665" ry="89.3718" fill="#FFEDCB"/>
</mask>
<g mask="url(#mask0_7_67)">
<path d="M106.712 18.4284C82.1731 -4.80726 63.9046 23.8559 66.4523 53.4827C68.8848 81.7395 96.3779 179.321 91.169 219.46H100.893C125.483 167.83 138.261 48.3116 106.712 18.4284Z" fill="#BDFDE2"/>
<path d="M97.5761 219.453C122.432 137.491 94.3721 45.0781 94.2681 44.6897C94.0788 43.988 93.2918 43.5539 92.5122 43.7269C91.7344 43.895 91.2555 44.6065 91.443 45.3082C91.5469 45.6933 119.65 138.243 94.6025 219.453H97.5761Z" fill="#4BD2AA"/>
<path d="M34.9425 57.0736C6.93371 43.3176 -0.126514 73.3289 10.7915 98.1551C19.8976 118.864 60.334 180.374 75.2189 219.445H89.1522C90.5876 165.506 68.1568 73.38 34.9425 57.0736Z" fill="#4BD2AA"/>
<path d="M83.736 219.446C74.8474 146.26 22.6758 66.3873 22.4889 66.0986C22.1267 65.539 21.354 65.3612 20.7567 65.6991C20.1651 66.0353 19.9724 66.7657 20.3328 67.3218C20.5177 67.6122 72.3502 146.971 81.2273 219.446H83.736Z" fill="#93DFD5"/>
<path d="M160.235 72.3231C191.684 59.5609 196.668 92.5693 182.693 118.609C173.173 136.361 138.659 182.025 115.715 220.585H89.9241C98.7198 162.423 127.565 85.5825 160.235 72.3231Z" fill="#BDFDE2"/>
<path d="M99.1175 220.565C121.293 149.909 173.134 83.0714 173.342 82.8054C173.785 82.2283 174.646 82.0973 175.265 82.5086C175.886 82.92 176.033 83.7243 175.59 84.2953C175.385 84.5633 124.083 150.707 101.958 220.565H99.1175Z" fill="#4BD2AA"/>
<path d="M171.4 112.464C194.174 109.949 190.474 131.047 175.881 144.909C161.96 158.129 104.294 196.703 88.8741 218.695L83.9871 215.089C94.8302 180.17 142.117 115.701 171.4 112.464Z" fill="#93DFD5"/>
<path d="M120.681 89.8875C137.293 78.5695 144.942 96.6419 140.423 113.507C136.113 129.592 110.157 183.522 109.057 207.105L103.419 206.281C94.4629 174.433 99.3232 104.444 120.681 89.8875Z" fill="#93DFD5"/>
<path d="M71.4695 29.0326C45.4182 11.2832 33.4226 39.6253 40.5082 66.0739C47.2685 91.2991 87.9735 175.876 89.6991 212.859L98.5405 211.568C112.586 161.621 104.964 51.8613 71.4695 29.0326Z" fill="#93DFD5"/>
<path d="M14.0037 101.91C-11.5772 99.0857 -7.42184 122.784 8.97082 138.355C24.6069 153.205 89.3822 196.534 106.702 221.237L112.192 217.187C100.012 177.963 46.8969 105.547 14.0037 101.91Z" fill="#93DFD5"/>
<path d="M100.309 204.493C75.069 155.03 20.5184 118.511 20.2956 118.353C19.8925 118.067 19.3314 118.12 19.0464 118.474C18.76 118.825 18.8567 119.345 19.259 119.631C19.4803 119.788 74.1123 156.361 98.9257 205.513L100.309 204.493Z" fill="white"/>
<path d="M85.7809 216.432C111.021 166.969 165.572 130.45 165.794 130.292C166.198 130.006 166.759 130.059 167.044 130.413C167.33 130.764 167.233 131.284 166.831 131.57C166.61 131.727 111.978 168.3 87.1643 217.452L85.7809 216.432Z" fill="white"/>
<path d="M105.521 206.587C100.588 157.42 125.127 106.381 125.222 106.165C125.396 105.776 125.863 105.587 126.264 105.748C126.664 105.906 126.848 106.353 126.675 106.743C126.58 106.957 102.005 158.071 107.117 206.82L105.521 206.587Z" fill="white"/>
<path d="M95.2866 212.041C103.023 134.934 64.5405 54.8915 64.3905 54.5534C64.1183 53.9427 63.386 53.6473 62.7577 53.8994C62.1301 54.1469 61.8415 54.8486 62.1122 55.4595C62.2616 55.7946 100.802 135.956 92.7838 212.406L95.2866 212.041Z" fill="white"/>
</g>
</svg>
