<svg width="17" height="21" viewBox="0 0 17 21" fill="none" xmlns="http://www.w3.org/2000/svg">
<path d="M16.425 21H0.424957V19C0.424957 17.6739 0.951741 16.4021 1.88942 15.4645C2.82711 14.5268 4.09887 14 5.42496 14H11.425C12.751 14 14.0228 14.5268 14.9605 15.4645C15.8982 16.4021 16.425 17.6739 16.425 19V21ZM8.42496 12C7.63703 12 6.85681 11.8448 6.12886 11.5433C5.4009 11.2417 4.73947 10.7998 4.18232 10.2426C3.62516 9.68549 3.18321 9.02405 2.88168 8.2961C2.58015 7.56815 2.42496 6.78793 2.42496 6C2.42496 5.21207 2.58015 4.43185 2.88168 3.7039C3.18321 2.97595 3.62516 2.31451 4.18232 1.75736C4.73947 1.20021 5.4009 0.758251 6.12886 0.456723C6.85681 0.155195 7.63703 -1.17411e-08 8.42496 0C10.0163 2.37122e-08 11.5424 0.632141 12.6676 1.75736C13.7928 2.88258 14.425 4.4087 14.425 6C14.425 7.5913 13.7928 9.11742 12.6676 10.2426C11.5424 11.3679 10.0163 12 8.42496 12Z" fill="#515979"/>
</svg>
